<svg width="44" height="33" xmlns="http://www.w3.org/2000/svg" xmlns:xlink="http://www.w3.org/1999/xlink" xmlns:svgjs="http://svgjs.com/svgjs" viewBox="0 0.522 44 31.957" fill="#fff"><svg xmlns="http://www.w3.org/2000/svg" width="44" height="33" viewBox="1.504 1.751 41.992 30.498"><path paint-order="stroke fill markers" fill-rule="evenodd" d="M42.072 1.75H2.928c-.786 0-1.424.638-1.424 1.423v27.654c0 .785.638 1.422 1.424 1.422h39.144c.786 0 1.424-.637 1.424-1.422V3.173c0-.785-.638-1.422-1.424-1.422zm-1.424 27.654H4.352V4.596h36.296v24.808zM8.083 11.297l13.67 8.414a1.423 1.423 0 0 0 1.494 0l13.67-8.414a1.422 1.422 0 1 0-1.494-2.422L22.5 16.829 9.577 8.875a1.425 1.425 0 0 0-1.96.465 1.422 1.422 0 0 0 .466 1.957z"/></svg></svg>